<svg xmlns="http://www.w3.org/2000/svg" width="174" height="36" viewBox="0 0 174 36" fill="none">
    <path d="M11.2156 28.448C8.26625 28.448 5.82091 27.468 3.87958 25.508C1.93824 23.548 0.967578 21.112 0.967578 18.2C0.967578 15.288 1.93824 12.852 3.87958 10.892C5.82091 8.932 8.26625 7.952 11.2156 7.952C13.0262 7.952 14.6969 8.38133 16.2276 9.24C17.7582 10.0987 18.9529 11.256 19.8116 12.712L14.9396 15.512C14.6222 14.8773 14.1276 14.3733 13.4556 14C12.7836 13.6267 12.0369 13.44 11.2156 13.44C9.83425 13.44 8.71425 13.888 7.85558 14.784C6.99691 15.68 6.56758 16.8187 6.56758 18.2C6.56758 19.5813 6.99691 20.72 7.85558 21.616C8.71425 22.512 9.83425 22.96 11.2156 22.96C12.0556 22.96 12.8022 22.7733 13.4556 22.4C14.1276 22.0267 14.6222 21.5133 14.9396 20.86L19.8116 23.66C18.9529 25.1347 17.7582 26.3013 16.2276 27.16C14.6969 28.0187 13.0262 28.448 11.2156 28.448ZM30.1652 16.716C30.4266 15.764 30.9399 15.0267 31.7052 14.504C32.4706 13.9813 33.3572 13.72 34.3652 13.72V19.32C33.2452 19.1707 32.2652 19.3947 31.4252 19.992C30.5852 20.5707 30.1652 21.504 30.1652 22.792V28H24.9852V14H30.1652V16.716ZM48.3554 14H54.2354L49.4754 27.972C48.7847 30.0067 47.7114 31.472 46.2554 32.368C44.7994 33.2827 42.8767 33.6933 40.4874 33.6V28.7C41.4394 28.7 42.1674 28.6253 42.6714 28.476C43.1754 28.3453 43.5767 28.0933 43.8754 27.72L38.2754 14H44.1554L46.6474 21.476L48.3554 14ZM67.7961 13.608C69.6815 13.608 71.2215 14.308 72.4161 15.708C73.6108 17.108 74.2081 18.872 74.2081 21C74.2081 23.128 73.6108 24.892 72.4161 26.292C71.2215 27.692 69.6815 28.392 67.7961 28.392C66.1908 28.392 64.9401 27.8413 64.0441 26.74V33.6H58.8641V14H64.0441V15.26C64.9401 14.1587 66.1908 13.608 67.7961 13.608ZM64.7161 22.876C65.1828 23.38 65.7895 23.632 66.5361 23.632C67.2828 23.632 67.8801 23.38 68.3281 22.876C68.7948 22.372 69.0281 21.7467 69.0281 21C69.0281 20.2533 68.7948 19.628 68.3281 19.124C67.8801 18.62 67.2828 18.368 66.5361 18.368C65.7895 18.368 65.1828 18.62 64.7161 19.124C64.2681 19.628 64.0441 20.2533 64.0441 21C64.0441 21.7467 64.2681 22.372 64.7161 22.876ZM88.3112 18.928H85.3712V21.952C85.3712 22.4187 85.4832 22.764 85.7072 22.988C85.9312 23.212 86.2578 23.3427 86.6872 23.38C87.1352 23.3987 87.6765 23.3893 88.3112 23.352V28C85.3805 28.4107 83.2898 28.1587 82.0392 27.244C80.8072 26.3293 80.1912 24.6587 80.1912 22.232V18.928H78.2312V14H80.1912V11.62L85.3712 10.08V14H88.3112V18.928ZM100.425 28.392C98.334 28.392 96.5513 27.6827 95.0767 26.264C93.6207 24.8453 92.8927 23.0907 92.8927 21C92.8927 18.9093 93.6207 17.1547 95.0767 15.736C96.5327 14.3173 98.3153 13.608 100.425 13.608C102.534 13.608 104.317 14.3173 105.773 15.736C107.229 17.1547 107.957 18.9093 107.957 21C107.957 23.0907 107.229 24.8453 105.773 26.264C104.317 27.6827 102.534 28.392 100.425 28.392ZM98.7167 22.792C99.1647 23.24 99.734 23.464 100.425 23.464C101.115 23.464 101.675 23.24 102.105 22.792C102.553 22.3253 102.777 21.728 102.777 21C102.777 20.272 102.553 19.684 102.105 19.236C101.675 18.7693 101.115 18.536 100.425 18.536C99.734 18.536 99.1647 18.7693 98.7167 19.236C98.2873 19.684 98.0727 20.272 98.0727 21C98.0727 21.728 98.2873 22.3253 98.7167 22.792ZM122.019 13.608C123.549 13.608 124.772 14.14 125.687 15.204C126.62 16.2493 127.087 17.8173 127.087 19.908V28H121.907V20.468C121.907 19.2173 121.328 18.592 120.171 18.592C119.555 18.592 119.079 18.788 118.743 19.18C118.425 19.572 118.267 20.1133 118.267 20.804V28H113.087V14H118.267V15.372C119.125 14.196 120.376 13.608 122.019 13.608ZM137.258 22.764C137.706 23.6973 138.658 24.164 140.114 24.164C140.972 24.164 141.766 23.8653 142.494 23.268L145.882 26.124C144.482 27.636 142.503 28.392 139.946 28.392C137.556 28.392 135.634 27.7013 134.178 26.32C132.74 24.92 132.022 23.1653 132.022 21.056C132.022 18.928 132.722 17.1547 134.122 15.736C135.54 14.3173 137.323 13.608 139.47 13.608C141.598 13.608 143.343 14.308 144.706 15.708C146.087 17.0893 146.778 18.8347 146.778 20.944C146.778 21.56 146.703 22.1667 146.554 22.764H137.258ZM137.174 19.432H141.878C141.56 18.312 140.804 17.752 139.61 17.752C138.396 17.752 137.584 18.312 137.174 19.432Z" fill="#0D1B4B"/>
    <path d="M168.746 28H162.53L159.73 23.296L156.902 28H150.686L156.622 18.088L150.826 8.4H157.042L159.73 12.88L162.39 8.4H168.606L162.838 18.088L168.746 28Z" fill="#315EFB"/>
    <rect x="24" y="23" width="7" height="5" fill="#A9BCFF"/>
    <rect x="160" y="15" width="14" height="3" fill="#A9BCFF"/>
</svg>